<svg width="1000" height="1800" viewBox="0 0 1000 1800" xmlns="http://www.w3.org/2000/svg">
  <defs>
    <radialGradient id="bgGradient" cx="50%" cy="50%">
      <stop offset="100%" style="stop-color:#0F5A2A;stop-opacity:1" />
    </radialGradient>

    <symbol id="clover" viewBox="0 0 24 24">
      <path d="M12,11.5c0,0-2.5-2.5-2.5-4.5s1.5-3.5,3-3.5s3,1.5,3,3.5S13.5,11.5,12,11.5z 
               M12.5,12c0,0,2.5-2.5,4.5-2.5s3.5,1.5,3.5,3s-1.5,3-3.5,3S12.5,13.5,12.5,12z 
               M12,12.5c0,0,2.5,2.5,2.5,4.5s-1.5,3.5-3,3.5s-3-1.5-3-3.5S10.5,12.5,12,12.5z 
               M11.5,12c0,0-2.5,2.5-4.5,2.5s-3.5-1.5-3.5-3s1.5-3,3.5-3S11.5,10.5,11.5,12z" 
            fill="green" opacity="0.2"/>
            
    </symbol>


    <pattern id="cloverPattern" x="0" y="0" width="100" height="100" patternUnits="userSpaceOnUse">
      <use href="#clover" x="10" y="10" width="40" height="40" />
      <use href="#clover" x="30" y="15" width="60" height="60" />
      <use href="#clover" x="60" y="55" width="30" height="30" transform="rotate(15, 75, 70)" />
      <use href="#clover" x="60" y="40" width="15" height="15" transform="rotate(15, 75, 70)" />

    </pattern>
  </defs>

  <rect width="100%" height="100%" fill="url(#bgGradient)" />
  <rect width="100%" height="100%" fill="url(#cloverPattern)" />
</svg>
